<?xml version="1.0" encoding="utf-8"?>
<!-- Generator: Adobe Illustrator 18.1.1, SVG Export Plug-In . SVG Version: 6.00 Build 0)  -->
<svg version="1.1" id="Layer_1" xmlns="http://www.w3.org/2000/svg" xmlns:xlink="http://www.w3.org/1999/xlink" x="0px" y="0px"
	 width="288px" height="144px" viewBox="0 0 288 144" enable-background="new 0 0 288 144" xml:space="preserve">
<path fill="#FFFFFF" d="M4.6,57.5h4.9l15.3,22.8h0.1V57.5h3.8v27.7h-4.8L8.4,62.5H8.3v22.8H4.6V57.5z"/>
<path fill="#FFFFFF" d="M35.7,57.5h3.8v27.7h-3.8V57.5z"/>
<path fill="#FFFFFF" d="M65.9,63.5c-0.8-1-1.8-1.8-3-2.3c-1.2-0.5-2.4-0.8-3.7-0.8c-1.6,0-3,0.3-4.2,0.9c-1.3,0.6-2.3,1.4-3.2,2.4
	c-0.9,1-1.6,2.2-2.1,3.6c-0.5,1.4-0.7,2.8-0.7,4.4c0,1.5,0.2,2.8,0.7,4.2c0.5,1.3,1.1,2.5,2,3.4c0.9,1,2,1.8,3.2,2.3
	c1.3,0.6,2.7,0.9,4.3,0.9c1.6,0,3-0.3,4.2-1c1.2-0.7,2.2-1.6,3.1-2.7l3.2,2.4c-0.2,0.3-0.6,0.7-1.1,1.2c-0.5,0.5-1.2,1.1-2.1,1.6
	c-0.9,0.5-1.9,1-3.1,1.4c-1.2,0.4-2.6,0.6-4.2,0.6c-2.2,0-4.2-0.4-5.9-1.3c-1.8-0.8-3.3-1.9-4.5-3.3c-1.2-1.4-2.2-2.9-2.8-4.6
	s-1-3.4-1-5.2c0-2.1,0.4-4.1,1.1-5.9c0.7-1.8,1.7-3.4,3-4.7c1.3-1.3,2.8-2.3,4.6-3.1c1.8-0.7,3.7-1.1,5.9-1.1c1.8,0,3.6,0.4,5.4,1.1
	c1.8,0.7,3.2,1.8,4.3,3.2L65.9,63.5z"/>
<path fill="#FFFFFF" d="M74.2,57.5h3.8V69h14.4V57.5h3.8v27.7h-3.8V72.6H77.9v12.7h-3.8V57.5z"/>
<path fill="#FFFFFF" d="M115.9,86c-2.1,0-4.1-0.4-5.8-1.1c-1.8-0.7-3.3-1.8-4.6-3.1c-1.3-1.3-2.3-2.8-3-4.6
	c-0.7-1.8-1.1-3.7-1.1-5.8c0-2.1,0.4-4,1.1-5.8c0.7-1.8,1.7-3.3,3-4.6c1.3-1.3,2.8-2.3,4.6-3.1c1.8-0.7,3.7-1.1,5.8-1.1
	c2.1,0,4.1,0.4,5.8,1.1c1.8,0.7,3.3,1.8,4.6,3.1c1.3,1.3,2.3,2.8,3,4.6c0.7,1.8,1.1,3.7,1.1,5.8c0,2.1-0.4,4-1.1,5.8s-1.7,3.3-3,4.6
	c-1.3,1.3-2.8,2.3-4.6,3.1C120,85.6,118,86,115.9,86z M115.9,82.4c1.6,0,3-0.3,4.3-0.9c1.3-0.6,2.4-1.4,3.3-2.4
	c0.9-1,1.6-2.2,2.1-3.5c0.5-1.3,0.7-2.8,0.7-4.3c0-1.5-0.2-2.9-0.7-4.3c-0.5-1.3-1.2-2.5-2.1-3.5c-0.9-1-2-1.8-3.3-2.4
	c-1.3-0.6-2.7-0.9-4.3-0.9c-1.6,0-3,0.3-4.3,0.9c-1.3,0.6-2.4,1.4-3.3,2.4c-0.9,1-1.6,2.2-2.1,3.5c-0.5,1.3-0.7,2.8-0.7,4.3
	c0,1.5,0.2,2.9,0.7,4.3c0.5,1.3,1.2,2.5,2.1,3.5c0.9,1,2,1.8,3.3,2.4C112.9,82.1,114.3,82.4,115.9,82.4z"/>
<path fill="#FFFFFF" d="M135.8,57.5h3.8v24.2h12.7v3.5h-16.5V57.5z"/>
<path fill="#FFFFFF" d="M156.1,57.5h10.1l1.3,3.5h-7.6v8.3h10.5l1.3,3.5h-11.8v8.9h14.8l1.3,3.5h-19.9V57.5z"/>
<polygon fill="#FFFFFF" points="236.5,73.1 236.5,85.4 248,85.4 241,73.1 "/>
<path fill="#FFFFFF" d="M257.3,77.5c-0.8-1.9-1.2-3.9-1.2-6.1c0-2.2,0.4-4.3,1.2-6.1c0.8-1.9,1.8-3.5,3.2-4.9c1.2-1.2,2.6-2.2,4.2-3
	h-17.1c0,0,0,0,0,0c1.2,0.5,2.2,1.2,2.9,2c0.7,0.8,1.2,1.7,1.5,2.7c0.3,1,0.4,1.9,0.4,2.9c0,0.9-0.2,1.9-0.5,2.7
	c-0.3,0.9-0.8,1.7-1.4,2.4c-0.6,0.7-1.4,1.3-2.3,1.8c-0.9,0.5-1.9,0.8-3,0.9l7.9,12.7h11.6c-1.6-0.8-3-1.7-4.1-2.9
	C259.2,81.1,258.1,79.4,257.3,77.5z"/>
<polygon fill="#FFFFFF" points="178.3,80.7 187.1,57.4 169.8,57.4 178.2,80.7 "/>
<rect x="224.9" y="57.4" fill="#FFFFFF" width="7.6" height="28.1"/>
<polygon fill="#FFFFFF" points="214.4,57.4 214.4,60.4 199.3,60.4 199.3,69.2 213.4,69.2 213.4,72.9 199.3,72.9 199.3,82.4 
	215.2,82.4 215.2,85.4 220.8,85.4 220.8,57.4 "/>
<path fill="#FFFFFF" d="M279.7,63.1c-1-1.1-2.1-1.9-3.5-2.5c-1.4-0.6-2.9-0.9-4.6-0.9c-1.7,0-3.2,0.3-4.6,0.9
	c-1.4,0.6-2.5,1.5-3.5,2.5c-1,1.1-1.7,2.3-2.3,3.7c-0.5,1.4-0.8,3-0.8,4.6c0,1.6,0.3,3.1,0.8,4.6s1.3,2.7,2.3,3.7
	c1,1.1,2.1,1.9,3.5,2.5c1.4,0.6,2.9,0.9,4.6,0.9c1.7,0,3.2-0.3,4.6-0.9c1.4-0.6,2.5-1.5,3.5-2.5c1-1.1,1.7-2.3,2.3-3.7
	s0.8-3,0.8-4.6c0-1.6-0.3-3.1-0.8-4.6C281.4,65.4,280.7,64.1,279.7,63.1z"/>
<path fill="#FFFFFF" d="M247.6,67.3c0.4-0.6,0.5-1.4,0.5-2.4c0-1-0.2-1.8-0.5-2.4c-0.4-0.6-0.8-1.1-1.4-1.4c-0.6-0.3-1.3-0.6-2-0.7
	c-0.8-0.1-1.5-0.2-2.3-0.2h-5.3v9.5h5.3c0.8,0,1.6-0.1,2.3-0.2c0.8-0.1,1.4-0.4,2-0.7C246.7,68.4,247.2,67.9,247.6,67.3z"/>
<polygon fill="#FFFFFF" points="191.4,57.4 180.4,85.4 195.3,85.4 195.3,57.4 "/>
</svg>
